<?xml version="1.0" encoding="UTF-8"?>
<svg id="tianna" xmlns="http://www.w3.org/2000/svg" viewBox="0 0 99.61 37.09">
  <defs>
    <style>
      .cls-1 {
        isolation: isolate;
      }

      .cls-2 {
        fill: #ec612a;
      }
    </style>
  </defs>
  <g class="cls-1">
    <g class="cls-1">
      <path class="cls-2" d="M39.6.1c.44.04.96.12,1.57.25.6.13,1.17.33,1.71.61.53.27.99.62,1.38,1.04.39.42.58.91.58,1.46,0,.51-.36.89-1.07,1.13-.71.24-1.57.39-2.56.47-.99.07-2.02.11-3.08.11h-2.7l-12.26.33c.18,1.14.33,2.49.44,4.07.11,1.58.2,3.17.27,4.79.07,1.61.12,3.16.14,4.65.02,1.48.03,2.69.03,3.6,0,.33,0,.91.03,1.73.02.82.02,1.77,0,2.83-.02,1.06-.05,2.17-.11,3.33-.06,1.15-.15,2.21-.27,3.16-.13.95-.29,1.74-.5,2.37-.2.62-.47.93-.8.93-.26,0-.52-.08-.8-.25-.27-.17-.54-.36-.8-.58-.26-.22-.49-.44-.69-.66-.2-.22-.36-.4-.47-.55-.33-.55-.53-1.38-.6-2.47-.07-1.1-.09-2.27-.06-3.52.04-1.25.11-2.47.22-3.68.11-1.21.17-2.24.17-3.08.04-2.9.09-5.29.16-7.18.07-1.89.16-3.44.25-4.65.09-1.21.2-2.16.33-2.86.13-.7.27-1.3.41-1.82-2.93.07-5.86.19-8.77.36s-5.89.25-8.94.25c-.92,0-1.61-.16-2.09-.47-.48-.31-.72-.61-.72-.91,0-.59.29-1.02.88-1.29.59-.28,1.3-.46,2.15-.55.84-.09,1.73-.14,2.67-.14s1.75-.05,2.45-.17c2.57-.26,5.15-.57,7.75-.93,2.6-.37,5.22-.7,7.84-.99,2.62-.29,5.25-.52,7.89-.69,2.64-.17,5.3-.17,7.98-.03Z"/>
    </g>
    <g class="cls-1">
      <path d="M38.39,15.89c.07.4.03.78-.14,1.13-.17.35-.41.66-.74.94-.33.27-.71.5-1.15.69s-.9.31-1.38.38c-.92.11-1.81.02-2.69-.28-.88-.29-1.38-.83-1.49-1.59-.15-.81.1-1.49.74-2.06.64-.57,1.49-.94,2.56-1.13,1.06-.18,2.02-.1,2.86.25.84.35,1.32.91,1.43,1.68ZM32.12,23.42c0-.88.23-1.48.69-1.81.46-.33.96-.46,1.51-.38.55.07,1.03.31,1.43.71.4.4.55.9.44,1.48-.15.66-.28,1.49-.41,2.48-.13.99-.21,1.94-.25,2.86-.04.92,0,1.71.08,2.37.09.66.3.99.63.99.22,0,.49-.28.8-.85.31-.57.61-1.24.91-2.01.29-.77.57-1.54.83-2.31.26-.77.42-1.36.5-1.76.11-.37.29-.61.55-.74.26-.13.5-.17.74-.11.24.05.44.19.6.41s.19.49.08.82c-.07.22-.19.63-.36,1.24-.17.61-.38,1.27-.63,2.01-.26.73-.56,1.49-.91,2.28-.35.79-.75,1.49-1.21,2.09-.46.61-.96,1.07-1.51,1.4-.55.33-1.15.4-1.81.22-.99-.29-1.7-.83-2.12-1.62-.42-.79-.67-1.71-.74-2.75-.07-1.04-.06-2.18.03-3.41.09-1.23.14-2.43.14-3.6Z"/>
      <path d="M45.75,19.85c.51.11.96.35,1.35.71.39.37.71.77.96,1.21.29-.33.66-.51,1.1-.55s.86.03,1.27.19c.4.17.73.42.99.77.26.35.35.76.28,1.24-.15.66-.28,1.49-.41,2.48-.13.99-.21,1.94-.25,2.86-.04.92,0,1.71.08,2.37.09.66.28.99.58.99.22,0,.49-.28.8-.85.31-.57.62-1.24.94-2.01.31-.77.6-1.54.85-2.31.26-.77.42-1.36.49-1.76.11-.37.29-.61.55-.74.26-.13.5-.17.74-.11.24.05.44.19.6.41.16.22.19.49.08.82-.07.22-.19.63-.36,1.24-.17.61-.38,1.27-.63,2.01-.26.73-.56,1.49-.91,2.28-.35.79-.75,1.49-1.21,2.09-.46.61-.97,1.07-1.54,1.4-.57.33-1.18.4-1.84.22-1.06-.29-1.83-.94-2.31-1.93-.29.88-.7,1.68-1.21,2.39-.51.72-1.17,1.24-1.98,1.57-.77.26-1.45.31-2.04.16-1.06-.29-1.91-.95-2.53-1.98-.62-1.03-1.04-2.22-1.27-3.58-.22-1.36-.24-2.77-.05-4.23.18-1.47.56-2.79,1.13-3.96.57-1.17,1.33-2.1,2.28-2.78.95-.68,2.11-.89,3.47-.63ZM47.18,25.4c-.07-.62-.21-1.23-.41-1.81-.2-.59-.5-.92-.91-.99-.59-.11-1.11.1-1.57.63-.46.53-.83,1.24-1.13,2.12-.29.88-.5,1.84-.63,2.89-.13,1.05-.17,2.04-.11,2.97.05.93.2,1.73.44,2.39.24.66.6,1.03,1.07,1.1.48.07.93-.18,1.35-.77.42-.59.79-1.34,1.1-2.26.31-.92.55-1.93.71-3.05s.19-2.19.08-3.22Z"/>
      <path d="M55,22.54c.11-.73.42-1.28.93-1.65.51-.37,1.04-.57,1.57-.61.53-.04,1,.07,1.4.33.4.26.57.66.5,1.21-.07.51-.17,1.09-.3,1.73-.13.64-.25,1.28-.36,1.92-.11.64-.19,1.25-.25,1.82-.05.57-.06,1.04-.03,1.4.29-.99.63-1.88,1.02-2.67.38-.79.78-1.46,1.18-2.01.29-.37.7-.65,1.21-.85.51-.2,1.01-.29,1.48-.28.48.02.86.16,1.15.41.29.26.35.62.17,1.1-.11.33-.21.84-.3,1.54-.09.7-.14,1.4-.14,2.12s.04,1.34.11,1.87c.07.53.2.8.39.8.22,0,.51-.2.88-.61.37-.4.73-.89,1.1-1.46.37-.57.71-1.17,1.02-1.82.31-.64.54-1.2.69-1.68.07-.33.23-.55.47-.66.24-.11.47-.15.69-.11.22.04.4.16.55.36.15.2.18.47.11.8-.11.51-.37,1.21-.77,2.09-.4.88-.88,1.74-1.43,2.58-.55.84-1.15,1.59-1.81,2.23-.66.64-1.3.96-1.92.96-1.06,0-1.82-.28-2.28-.85-.46-.57-.76-1.21-.91-1.92-.15-.72-.2-1.41-.17-2.09.04-.68.02-1.11-.06-1.29-.18.07-.38.33-.58.77-.2.44-.39.95-.58,1.54-.18.59-.35,1.2-.5,1.84-.15.64-.24,1.18-.27,1.62-.07.48-.32.83-.74,1.07-.42.24-.88.36-1.38.36s-.94-.13-1.35-.38c-.4-.26-.59-.66-.55-1.21.04-.62.04-1.38,0-2.25-.04-.88-.07-1.81-.11-2.78-.04-.97-.06-1.92-.06-2.83s.07-1.74.22-2.48Z"/>
      <path d="M68.63,22.54c.11-.73.42-1.28.93-1.65.51-.37,1.04-.57,1.57-.61.53-.04,1,.07,1.4.33.4.26.57.66.5,1.21-.07.51-.17,1.09-.3,1.73-.13.64-.25,1.28-.36,1.92-.11.64-.19,1.25-.25,1.82-.05.57-.06,1.04-.03,1.4.29-.99.63-1.88,1.02-2.67.38-.79.78-1.46,1.18-2.01.29-.37.7-.65,1.21-.85.51-.2,1.01-.29,1.48-.28.48.02.86.16,1.15.41.29.26.35.62.17,1.1-.11.33-.21.84-.3,1.54-.09.7-.14,1.4-.14,2.12s.04,1.34.11,1.87c.07.53.2.8.39.8.22,0,.51-.2.88-.61.37-.4.73-.89,1.1-1.46.37-.57.71-1.17,1.02-1.82.31-.64.54-1.2.69-1.68.07-.33.23-.55.47-.66.24-.11.47-.15.69-.11.22.04.4.16.55.36.15.2.18.47.11.8-.11.51-.37,1.21-.77,2.09-.4.88-.88,1.74-1.43,2.58-.55.84-1.15,1.59-1.81,2.23-.66.64-1.3.96-1.92.96-1.06,0-1.82-.28-2.28-.85-.46-.57-.76-1.21-.91-1.92-.15-.72-.2-1.41-.17-2.09.04-.68.02-1.11-.06-1.29-.18.07-.38.33-.58.77-.2.44-.39.95-.58,1.54-.18.59-.35,1.2-.5,1.84-.15.64-.24,1.18-.27,1.62-.07.48-.32.83-.74,1.07-.42.24-.88.36-1.38.36s-.94-.13-1.35-.38c-.4-.26-.59-.66-.55-1.21.04-.62.04-1.38,0-2.25-.04-.88-.07-1.81-.11-2.78-.04-.97-.06-1.92-.06-2.83s.07-1.74.22-2.48Z"/>
      <path d="M88.54,19.85c.51.11.96.35,1.35.71.39.37.71.77.96,1.21.29-.33.66-.51,1.1-.55s.86.03,1.27.19c.4.17.73.42.99.77.26.35.35.76.28,1.24-.15.66-.28,1.49-.41,2.48-.13.99-.21,1.94-.25,2.86-.04.92,0,1.71.08,2.37.09.66.28.99.58.99.22,0,.49-.28.8-.85.31-.57.62-1.24.93-2.01.31-.77.6-1.54.85-2.31.26-.77.42-1.36.5-1.76.11-.37.29-.61.55-.74.26-.13.5-.17.74-.11.24.05.44.19.6.41s.19.49.08.82c-.07.22-.19.63-.36,1.24-.17.61-.38,1.27-.63,2.01-.26.73-.56,1.49-.91,2.28-.35.79-.75,1.49-1.21,2.09-.46.61-.97,1.07-1.54,1.4s-1.18.4-1.84.22c-1.06-.29-1.83-.94-2.31-1.93-.29.88-.7,1.68-1.21,2.39-.51.72-1.17,1.24-1.98,1.57-.77.26-1.45.31-2.04.16-1.06-.29-1.91-.95-2.53-1.98-.62-1.03-1.04-2.22-1.27-3.58-.22-1.36-.24-2.77-.05-4.23.18-1.47.56-2.79,1.13-3.96.57-1.17,1.33-2.1,2.28-2.78.95-.68,2.11-.89,3.47-.63ZM89.97,25.4c-.07-.62-.21-1.23-.41-1.81-.2-.59-.5-.92-.91-.99-.59-.11-1.11.1-1.57.63-.46.53-.83,1.24-1.13,2.12-.29.88-.5,1.84-.63,2.89-.13,1.05-.17,2.04-.11,2.97.05.93.2,1.73.44,2.39.24.66.6,1.03,1.07,1.1.48.07.93-.18,1.35-.77.42-.59.79-1.34,1.1-2.26.31-.92.55-1.93.71-3.05s.19-2.19.08-3.22Z"/>
    </g>
  </g>
</svg>